<?xml version="1.0" standalone="no"?>
<!DOCTYPE svg PUBLIC "-//W3C//DTD SVG 20010904//EN"
    "http://www.w3.org/TR/2001/REC-SVG-20010904/DTD/svg10.dtd">
<svg version="1.0" xmlns="http://www.w3.org/2000/svg"
    width="512.000000pt" height="512.000000pt" viewBox="0 0 512.000000 512.000000"
    preserveAspectRatio="xMidYMid meet">

    <g transform="translate(0.000000,512.000000) scale(0.100000,-0.100000)"
        fill="#000000" stroke="none">
        <path d="M3780 4571 c-148 -49 -206 -175 -166 -365 23 -114 13 -141 -83 -221
-42 -34 -500 -407 -1018 -827 l-943 -765 -122 23 c-293 56 -525 128 -725 224
-137 66 -173 94 -173 139 0 38 31 63 165 129 339 170 913 288 1539 318 130 6
151 10 173 28 33 29 34 78 2 112 l-24 27 -160 -7 c-623 -24 -1225 -148 -1600
-332 -194 -95 -254 -159 -255 -275 0 -102 35 -155 145 -225 216 -134 626 -260
1065 -328 496 -77 1161 -89 1685 -30 546 60 1041 197 1300 358 110 70 145 123
145 225 -1 114 -60 179 -245 271 -113 56 -306 130 -340 130 -40 0 -75 -37 -75
-79 0 -51 18 -66 144 -111 117 -43 273 -118 324 -156 40 -31 43 -74 8 -109
-27 -27 -170 -101 -282 -145 -159 -64 -431 -136 -655 -175 -127 -22 -373 -55
-377 -50 -6 6 895 1111 925 1135 40 31 65 34 160 15 110 -22 177 -16 246 23
98 55 143 172 117 305 -55 286 -356 613 -660 719 -61 21 -201 32 -240 19z
m171 -167 c248 -74 525 -364 568 -596 15 -81 0 -125 -47 -145 -34 -14 -45 -14
-128 2 -140 27 -230 9 -307 -63 -16 -15 -256 -307 -534 -648 l-504 -622 -147
-7 c-269 -14 -822 4 -1013 33 l-47 7 961 780 c744 604 968 790 989 825 46 75
55 143 34 249 -20 97 -16 149 12 174 33 30 87 33 163 11z"/>
        <path d="M2290 3713 c-508 -22 -954 -88 -1335 -198 -544 -158 -874 -384 -941
-645 -41 -160 17 -483 130 -725 165 -352 489 -684 873 -896 57 -31 63 -37 68
-74 32 -209 179 -392 373 -465 146 -55 474 -124 722 -152 149 -16 611 -16 760
0 248 28 576 97 722 152 194 73 341 256 373 465 5 37 11 43 68 74 384 212 708
544 873 896 113 242 171 565 130 725 -36 141 -155 277 -346 397 -119 74 -360
183 -406 183 -13 0 -35 -10 -49 -22 -31 -27 -37 -79 -11 -107 9 -10 68 -40
131 -66 415 -172 600 -388 505 -588 -75 -158 -343 -328 -689 -438 -87 -28
-121 -56 -121 -99 0 -37 39 -80 73 -80 12 0 68 15 123 34 217 74 354 138 495
232 43 29 79 52 79 51 0 -1 -13 -36 -29 -77 -116 -303 -379 -607 -711 -823
-481 -312 -1120 -471 -1762 -436 -147 8 -174 7 -194 -6 -44 -28 -45 -96 -4
-127 34 -25 271 -42 475 -33 428 18 793 96 1168 250 46 19 -17 -98 -90 -167
-67 -62 -110 -82 -260 -123 -310 -85 -565 -118 -923 -118 -358 0 -613 33 -923
118 -150 41 -193 61 -260 123 -73 69 -136 186 -89 167 178 -73 467 -165 521
-165 60 0 96 94 52 134 -11 10 -80 35 -154 56 -187 54 -308 100 -472 180 -412
201 -719 477 -903 815 -35 64 -102 217 -102 233 0 2 28 -17 62 -41 77 -54 194
-117 301 -164 107 -46 305 -113 334 -113 13 0 35 11 48 25 51 50 19 119 -67
144 -162 48 -396 155 -512 234 -33 22 -88 69 -121 103 -138 140 -148 269 -32
407 186 219 637 402 1243 506 337 57 609 80 1023 86 168 2 288 8 299 14 53 28
41 119 -18 140 -30 10 -309 13 -500 4z"/>
    </g>
</svg>